<svg xmlns="http://www.w3.org/2000/svg" viewBox="0 0 64 64" role="img" aria-label="three-sided dice">
  <defs>
    <linearGradient id="bg" x1="0" y1="0" x2="1" y2="1">
      <stop offset="0%" stop-color="#FBF9F3" />
      <stop offset="100%" stop-color="#ECE7DD" />
    </linearGradient>
    <filter id="shadow" x="-20%" y="-20%" width="140%" height="150%">
      <feDropShadow dx="0" dy="2" stdDeviation="1.5" flood-color="#2E2108" flood-opacity="0.18" />
    </filter>
  </defs>
  <rect width="64" height="64" rx="14" fill="url(#bg)" />
  <g filter="url(#shadow)" stroke="#3A2B10" stroke-linejoin="round" stroke-width="1.2">
    <path d="M32 12 50 22.5 32 33 14 22.5Z" fill="#FFF7E5" stroke-opacity="0.45" />
    <path d="M14 22.5 32 33 32 53 14 42.5Z" fill="#E9D3A2" stroke-opacity="0.5" />
    <path d="M50 22.5 32 33 32 53 50 42.5Z" fill="#C99E57" stroke-opacity="0.55" />
    <path d="M32 12 50 22.5 50 42.5 32 53 14 42.5 14 22.5Z" fill="none" stroke-opacity="0.62" stroke-width="1.5" />
    <path d="M14 22.5 32 33 50 22.5M32 33V53" fill="none" stroke-opacity="0.45" />
  </g>
  <g fill="#3A2B10">
    <circle cx="32" cy="22.5" r="2" />
    <circle cx="19.2" cy="31.6" r="2" />
    <circle cx="26.5" cy="43.9" r="2" />
    <circle cx="35.3" cy="34.6" r="2" />
    <circle cx="41.1" cy="37.8" r="2" />
    <circle cx="47" cy="40.9" r="2" />
  </g>
</svg>
