<svg xmlns="http://www.w3.org/2000/svg" viewBox="0 0 512 512" role="img" aria-label="three-sided dice">
  <defs>
    <linearGradient id="bg" x1="0" y1="0" x2="1" y2="1">
      <stop offset="0%" stop-color="#FBF9F3" />
      <stop offset="100%" stop-color="#ECE7DD" />
    </linearGradient>
    <filter id="shadow" x="-20%" y="-20%" width="140%" height="150%">
      <feDropShadow dx="0" dy="16" stdDeviation="12" flood-color="#2E2108" flood-opacity="0.18" />
    </filter>
  </defs>
  <rect width="512" height="512" rx="112" fill="url(#bg)" />
  <g filter="url(#shadow)" stroke="#3A2B10" stroke-linejoin="round" stroke-width="10">
    <path d="M256 96 402 180 256 264 110 180Z" fill="#FFF7E5" stroke-opacity="0.45" />
    <path d="M110 180 256 264 256 424 110 340Z" fill="#E9D3A2" stroke-opacity="0.5" />
    <path d="M402 180 256 264 256 424 402 340Z" fill="#C99E57" stroke-opacity="0.55" />
    <path d="M256 96 402 180 402 340 256 424 110 340 110 180Z" fill="none" stroke-opacity="0.62" stroke-width="12" />
    <path d="M110 180 256 264 402 180M256 264V424" fill="none" stroke-opacity="0.45" />
  </g>
  <g fill="#3A2B10">
    <circle cx="256" cy="180" r="16" />
    <circle cx="154" cy="253" r="16" />
    <circle cx="212" cy="351" r="16" />
    <circle cx="282" cy="277" r="16" />
    <circle cx="329" cy="302" r="16" />
    <circle cx="376" cy="327" r="16" />
  </g>
</svg>
